<?xml version="1.0" encoding="utf-8"?>
<!-- Generator: Adobe Illustrator 17.0.0, SVG Export Plug-In . SVG Version: 6.00 Build 0)  -->
<!DOCTYPE svg PUBLIC "-//W3C//DTD SVG 1.1//EN" "http://www.w3.org/Graphics/SVG/1.1/DTD/svg11.dtd">
<svg version="1.1" id="Layer_1" xmlns="http://www.w3.org/2000/svg" xmlns:xlink="http://www.w3.org/1999/xlink" x="0px" y="0px"
	 width="300px" height="300px" viewBox="18.89 125.187 300 300" enable-background="new 18.89 125.187 300 300"
	 xml:space="preserve">
<path d="M151.443,222.299l5.643-3.478c1.732-1.068,2.269-3.335,1.202-5.069c-1.068-1.732-3.337-2.271-5.069-1.203l-13.469,8.303
	c-0.831,0.515-1.426,1.336-1.65,2.286c-0.067,0.282-0.1,0.566-0.1,0.851c0,0.677,0.187,1.347,0.547,1.931l0.129,0.209
	c0.19,0.68,0.562,1.277,1.071,1.737l7.105,11.524c1.067,1.732,3.336,2.269,5.068,1.201c1.732-1.068,2.269-3.336,1.203-5.069
	l-3.771-6.115c21.208,3.43,37.455,21.86,37.455,44.02c0,24.59-20.006,44.597-44.599,44.597c-2.033,0-3.683,1.649-3.683,3.683
	s1.65,3.684,3.683,3.684c28.654,0,51.966-23.312,51.966-51.964C194.174,247.924,175.705,226.671,151.443,222.299z"/>
</svg>
