<?xml version="1.0" encoding="utf-8"?>
<!-- Generator: Adobe Illustrator 17.0.0, SVG Export Plug-In . SVG Version: 6.00 Build 0)  -->
<!DOCTYPE svg PUBLIC "-//W3C//DTD SVG 1.1//EN" "http://www.w3.org/Graphics/SVG/1.1/DTD/svg11.dtd">
<svg version="1.1" id="Layer_1" xmlns="http://www.w3.org/2000/svg" xmlns:xlink="http://www.w3.org/1999/xlink" x="0px" y="0px"
	 width="300px" height="300px" viewBox="18.89 125.187 300 300" enable-background="new 18.89 125.187 300 300"
	 xml:space="preserve">
<path d="M245.845,270.812l-10.015-10.924c-0.618-0.675-1.482-1.076-2.394-1.115
	c-0.915-0.039-1.809,0.285-2.482,0.903l-10.926,10.015c-0.741,0.681-1.119,1.612-1.119,2.546c0,0.832,0.302,1.667,0.908,2.33
	c1.287,1.403,3.471,1.499,4.875,0.212l4.493-4.119c-0.717,34.891-29.302,63.057-64.36,63.057c-35.507,0-64.395-28.886-64.395-64.394
	s28.888-64.393,64.395-64.393c15.443,0,30.378,5.549,42.053,15.628c1.442,1.245,3.62,1.086,4.867-0.356
	c1.246-1.445,1.087-3.622-0.357-4.867c-12.929-11.16-29.465-17.306-46.563-17.306c-39.311,0-71.295,31.982-71.295,71.294
	c0,39.313,31.984,71.294,71.295,71.294c38.953,0,70.695-31.407,71.269-70.229l4.664,5.086c1.287,1.407,3.469,1.5,4.875,0.213
	C247.036,274.401,247.131,272.216,245.845,270.812z"/>
</svg>
