<?xml version="1.0" encoding="utf-8"?>
<!-- Generator: Adobe Illustrator 17.0.0, SVG Export Plug-In . SVG Version: 6.00 Build 0)  -->
<!DOCTYPE svg PUBLIC "-//W3C//DTD SVG 1.1//EN" "http://www.w3.org/Graphics/SVG/1.1/DTD/svg11.dtd">
<svg version="1.1" id="Layer_1" xmlns="http://www.w3.org/2000/svg" xmlns:xlink="http://www.w3.org/1999/xlink" x="0px" y="0px"
	 width="300px" height="300px" viewBox="18.89 125.187 300 300" enable-background="new 18.89 125.187 300 300"
	 xml:space="preserve">
<path d="M220.856,142.331c-32.611,0-63.005,27.456-85.582,77.31c-21.765,48.064-33.919,111.662-34.341,179.437
	l-4.73-5.397c-1.339-1.53-3.666-1.684-5.196-0.343c-0.832,0.727-1.257,1.748-1.257,2.773c0,0.86,0.302,1.726,0.915,2.425
	l10.427,11.898c0.643,0.736,1.554,1.186,2.525,1.249c0.978,0.065,1.938-0.261,2.673-0.906l11.898-10.428
	c1.532-1.341,1.681-3.668,0.342-5.198c-1.342-1.53-3.669-1.683-5.199-0.341l-5.03,4.407c0.404-66.797,12.323-129.372,33.683-176.537
	c21.314-47.064,49.324-72.983,78.872-72.983c2.034,0,3.682-1.649,3.682-3.684C224.538,143.979,222.89,142.331,220.856,142.331z"/>
</svg>
