<?xml version="1.0" encoding="utf-8"?>
<!-- Generator: Adobe Illustrator 17.0.0, SVG Export Plug-In . SVG Version: 6.00 Build 0)  -->
<!DOCTYPE svg PUBLIC "-//W3C//DTD SVG 1.1//EN" "http://www.w3.org/Graphics/SVG/1.1/DTD/svg11.dtd">
<svg version="1.1" id="Layer_1" xmlns="http://www.w3.org/2000/svg" xmlns:xlink="http://www.w3.org/1999/xlink" x="0px" y="0px"
	 width="300px" height="300px" viewBox="18.89 125.187 300 300" enable-background="new 18.89 125.187 300 300"
	 xml:space="preserve">
<path d="M212.141,271.507l-3.517-15.428c-0.452-1.983-2.427-3.224-4.411-2.772c-1.981,0.453-3.224,2.426-2.772,4.412
	l1.015,4.449c-0.211-0.369-0.429-0.759-0.657-1.17c-2.139-3.855-5.066-9.135-11.248-9.135c-6.358,0-9.134,5.945-11.362,10.721
	c-1.417,3.031-3.021,6.468-4.659,6.472c-1.914-0.394-5.654-8.191-7.452-11.939c-3.977-8.288-7.733-16.117-14.066-16.117
	c-7.041,0-9.072,10.299-11.641,23.334c-1.121,5.696-2.96,15.018-4.762,17.261c-2.362-1.159-6.966-8.802-9.505-13.017
	c-5.401-8.969-10.065-16.715-16.161-16.715c-2.034,0-3.707,1.649-3.707,3.681c0,2.036,1.629,3.684,3.661,3.684
	c2.209,0.385,7.209,8.689,9.898,13.152c5.401,8.968,10.067,16.714,16.162,16.714c7.043,0,9.072-10.298,11.641-23.334
	c1.12-5.681,2.951-14.976,4.749-17.245c1.994,1.173,5.4,8.269,7.087,11.788c3.978,8.288,7.734,16.116,14.066,16.116
	c6.357,0,9.133-5.944,11.363-10.72c1.415-3.032,3.022-6.469,4.688-6.469c1.718,0,2.961,2.017,4.805,5.341
	c1.075,1.938,2.35,4.235,4.137,6.041l-7.189,1.638c-1.707,0.39-2.864,1.907-2.864,3.589c0,0.273,0.03,0.547,0.093,0.823
	c0.453,1.984,2.427,3.224,4.41,2.772l15.427-3.517C211.351,275.465,212.593,273.491,212.141,271.507z"/>
</svg>
