<?xml version="1.0" encoding="utf-8"?>
<!-- Generator: Adobe Illustrator 17.0.0, SVG Export Plug-In . SVG Version: 6.00 Build 0)  -->
<!DOCTYPE svg PUBLIC "-//W3C//DTD SVG 1.1//EN" "http://www.w3.org/Graphics/SVG/1.1/DTD/svg11.dtd">
<svg version="1.1" id="Layer_1" xmlns="http://www.w3.org/2000/svg" xmlns:xlink="http://www.w3.org/1999/xlink" x="0px" y="0px"
	 width="300px" height="300px" viewBox="18.89 125.187 300 300" enable-background="new 18.89 125.187 300 300"
	 xml:space="preserve">
<path d="M230.18,287.504l-11.214-11.161c-1.44-1.436-3.773-1.43-5.209,0.011c-0.715,0.718-1.072,1.66-1.072,2.599
	c0,0.945,0.362,1.892,1.085,2.611l4.916,4.893h-95.522v-68.672c0-2.034-1.649-3.683-3.683-3.683c-2.034,0-3.683,1.649-3.683,3.683
	v76.038h102.895l-4.884,4.906c-1.435,1.442-1.431,3.776,0.013,5.208c1.44,1.438,3.773,1.431,5.208-0.01l11.162-11.215
	C231.627,291.27,231.624,288.939,230.18,287.504z"/>
</svg>
