<?xml version="1.0" encoding="utf-8"?>
<!-- Generator: Adobe Illustrator 17.0.0, SVG Export Plug-In . SVG Version: 6.00 Build 0)  -->
<!DOCTYPE svg PUBLIC "-//W3C//DTD SVG 1.1//EN" "http://www.w3.org/Graphics/SVG/1.1/DTD/svg11.dtd">
<svg version="1.1" id="Layer_1" xmlns="http://www.w3.org/2000/svg" xmlns:xlink="http://www.w3.org/1999/xlink" x="0px" y="0px"
	 width="300px" height="300px" viewBox="18.89 125.187 300 300" enable-background="new 18.89 125.187 300 300"
	 xml:space="preserve">
<path d="M210.301,229.396c-21.385-21.949-56.639-22.409-78.588-1.025c-13.114,12.777-20.469,29.896-20.708,48.206
	c-0.004,0.306-0.005,0.61-0.005,0.917c0,17.968,6.885,34.915,19.449,47.81c1.42,1.459,3.751,1.488,5.208,0.068
	c1.457-1.42,1.487-3.753,0.068-5.209c-11.402-11.705-17.593-27.167-17.353-43.49c0.212-16.341,6.776-31.62,18.482-43.025
	c19.039-18.55,49.62-18.15,68.17,0.889c14.555,14.941,14.242,38.939-0.698,53.495c-11.054,10.77-28.457,11.102-39.917,1.176
	l7.541-2.043c1.963-0.533,3.124-2.558,2.591-4.521c-0.531-1.964-2.554-3.124-4.517-2.591l-15.273,4.137
	c-0.944,0.255-1.746,0.874-2.232,1.723c-0.323,0.561-0.489,1.193-0.489,1.832c0,0.323,0.042,0.646,0.129,0.963l4.136,15.27
	c0.532,1.964,2.555,3.126,4.519,2.593c1.963-0.532,3.123-2.556,2.591-4.517l-1.462-5.398c14.265,10.445,34.449,9.391,47.524-3.349
	C227.316,275.919,227.691,247.246,210.301,229.396z"/>
</svg>
