<?xml version="1.0" encoding="utf-8"?>
<!-- Generator: Adobe Illustrator 17.0.0, SVG Export Plug-In . SVG Version: 6.00 Build 0)  -->
<!DOCTYPE svg PUBLIC "-//W3C//DTD SVG 1.1//EN" "http://www.w3.org/Graphics/SVG/1.1/DTD/svg11.dtd">
<svg version="1.1" id="Layer_1" xmlns="http://www.w3.org/2000/svg" xmlns:xlink="http://www.w3.org/1999/xlink" x="0px" y="0px"
	 width="300px" height="300px" viewBox="18.89 125.187 300 300" enable-background="new 18.89 125.187 300 300"
	 xml:space="preserve">
<path d="M203.902,266.557c-0.003-0.929-0.374-1.819-1.033-2.475l-10.662-10.612c-1.37-1.365-3.588-1.36-4.953,0.012
	c-0.68,0.682-1.02,1.577-1.02,2.471c0,0.899,0.344,1.797,1.032,2.482l4.673,4.651H124.07c-1.933,0-3.502,1.569-3.502,3.505
	c0,1.935,1.569,3.502,3.502,3.502h67.875l-4.642,4.663c-1.364,1.373-1.36,3.591,0.012,4.956c1.37,1.362,3.588,1.358,4.953-0.013
	l10.48-10.528c0.545-0.497,0.938-1.156,1.084-1.91c0.046-0.228,0.071-0.461,0.071-0.696v-0.008H203.902z"/>
</svg>
