<?xml version="1.0" encoding="utf-8"?>
<!-- Generator: Adobe Illustrator 17.0.0, SVG Export Plug-In . SVG Version: 6.00 Build 0)  -->
<!DOCTYPE svg PUBLIC "-//W3C//DTD SVG 1.1//EN" "http://www.w3.org/Graphics/SVG/1.1/DTD/svg11.dtd">
<svg version="1.1" id="Layer_1" xmlns="http://www.w3.org/2000/svg" xmlns:xlink="http://www.w3.org/1999/xlink" x="0px" y="0px"
	 width="300px" height="300px" viewBox="18.89 125.187 300 300" enable-background="new 18.89 125.187 300 300"
	 xml:space="preserve">
<path d="M266.961,278.21l-6.316-14.508c-0.812-1.867-2.982-2.72-4.847-1.908c-1.864,0.811-2.722,2.982-1.908,4.847
	l2.651,6.088c-1.417-0.96-2.659-2.539-4.242-4.679c-2.875-3.888-6.454-8.729-13.659-8.729c-7.206,0-10.785,4.841-13.659,8.731
	c-2.712,3.667-4.408,5.741-7.736,5.741c-2.637,0-5.482-9.142-7.181-14.606c-3.027-9.725-6.155-19.782-14.216-19.782
	c-8.302,0-11.079,12.451-14.292,26.866c-1.462,6.547-4.5,20.166-7.105,21.102c-3.164,0-8.688-10.129-11.993-16.181
	c-5.616-10.295-10.921-20.02-18.456-20.02c-8.38,0-10.712,11.865-13.408,25.601c-1.178,5.986-3.598,18.309-6.026,19.587
	c-3.034-2.359-6.511-18.787-8.61-28.693c-4.679-22.098-7.714-34.599-15.662-34.599c-7.442,0-13.564,10.269-20.654,22.16
	c-3.866,6.488-11.069,18.565-14.324,18.565c-2.035,0-3.685,1.648-3.685,3.684c0,2.034,1.65,3.685,3.685,3.685
	c7.44,0,13.563-10.27,20.651-22.162c3.785-6.346,10.756-18.041,14.109-18.548c3.047,2.17,6.56,18.763,8.673,28.742
	c4.679,22.096,7.714,34.598,15.662,34.598c8.381,0,10.709-11.863,13.408-25.6c1.202-6.112,3.701-18.833,6.181-19.652
	c3.162,0,8.69,10.129,11.991,16.18c5.617,10.294,10.923,20.019,18.458,20.019c8.302,0,11.079-12.448,14.294-26.864
	c1.46-6.546,4.498-20.168,7.103-21.103c2.639,0,5.481,9.143,7.181,14.604c3.026,9.727,6.154,19.786,14.216,19.786
	c7.206,0,10.785-4.842,13.659-8.732c2.712-3.667,4.408-5.742,7.736-5.742c3.329,0,5.024,2.074,7.736,5.742
	c1.937,2.621,4.198,5.669,7.669,7.382l-6.44,2.803c-1.386,0.604-2.215,1.958-2.215,3.381c0,0.488,0.099,0.989,0.308,1.467
	c0.812,1.866,2.98,2.719,4.847,1.907l14.509-6.314c0.896-0.389,1.6-1.119,1.957-2.029
	C267.369,280.117,267.352,279.102,266.961,278.21z"/>
</svg>
