<?xml version="1.0" encoding="utf-8"?>
<!-- Generator: Adobe Illustrator 17.0.0, SVG Export Plug-In . SVG Version: 6.00 Build 0)  -->
<!DOCTYPE svg PUBLIC "-//W3C//DTD SVG 1.1//EN" "http://www.w3.org/Graphics/SVG/1.1/DTD/svg11.dtd">
<svg version="1.1" id="Layer_1" xmlns="http://www.w3.org/2000/svg" xmlns:xlink="http://www.w3.org/1999/xlink" x="0px" y="0px"
	 width="300px" height="300px" viewBox="18.89 125.187 300 300" enable-background="new 18.89 125.187 300 300"
	 xml:space="preserve">
<path d="M186.11,247.423c-1.249-1.607-3.563-1.896-5.169-0.647l-33.895,26.357l0.525-6.816
	c0.17-2.028-1.362-3.799-3.39-3.956c-2.028-0.156-3.798,1.363-3.955,3.39l-1.215,15.775c-0.009,0.095-0.011,0.189-0.011,0.283
	c0,0.875,0.312,1.727,0.887,2.397c0.635,0.742,1.539,1.2,2.513,1.277l15.776,1.214c2.028,0.155,3.799-1.364,3.954-3.391
	c0.174-2.032-1.36-3.8-3.389-3.954l-6.999-0.539l33.721-26.221C187.071,251.342,187.36,249.028,186.11,247.423z"/>
</svg>
