<?xml version="1.0" encoding="utf-8"?>
<!-- Generator: Adobe Illustrator 17.0.0, SVG Export Plug-In . SVG Version: 6.00 Build 0)  -->
<!DOCTYPE svg PUBLIC "-//W3C//DTD SVG 1.1//EN" "http://www.w3.org/Graphics/SVG/1.1/DTD/svg11.dtd">
<svg version="1.1" id="Layer_1" xmlns="http://www.w3.org/2000/svg" xmlns:xlink="http://www.w3.org/1999/xlink" x="0px" y="0px"
	 width="300px" height="300px" viewBox="18.89 125.187 300 300" enable-background="new 18.89 125.187 300 300"
	 xml:space="preserve">
<path d="M262.38,269.681c-0.002-0.976-0.392-1.912-1.085-2.601l-11.214-11.162c-1.441-1.436-3.775-1.431-5.209,0.013
	c-0.715,0.718-1.073,1.658-1.073,2.598c0,0.945,0.361,1.891,1.086,2.61l4.915,4.893H80.008c-2.036,0-3.684,1.65-3.684,3.685
	c0,2.033,1.648,3.683,3.684,3.683h169.798l-4.883,4.904c-1.434,1.444-1.43,3.775,0.013,5.21c1.441,1.436,3.773,1.43,5.208-0.011
	l11.025-11.076c0.572-0.523,0.983-1.215,1.136-2.006c0.048-0.239,0.074-0.483,0.074-0.73L262.38,269.681L262.38,269.681z"/>
</svg>
