<?xml version="1.0" encoding="utf-8"?>
<!-- Generator: Adobe Illustrator 17.0.0, SVG Export Plug-In . SVG Version: 6.00 Build 0)  -->
<!DOCTYPE svg PUBLIC "-//W3C//DTD SVG 1.1//EN" "http://www.w3.org/Graphics/SVG/1.1/DTD/svg11.dtd">
<svg version="1.1" id="Layer_1" xmlns="http://www.w3.org/2000/svg" xmlns:xlink="http://www.w3.org/1999/xlink" x="0px" y="0px"
	 width="300px" height="300px" viewBox="18.89 125.187 300 300" enable-background="new 18.89 125.187 300 300"
	 xml:space="preserve">
<g id="logo">
	<g>
		<rect x="129.935" y="196.597" fill="#FFFFFF" width="102.983" height="102.984"/>
	</g>
	<polygon fill="#FFFFFF" points="93.397,218.29 93.397,321.271 129.934,299.582 129.934,196.598 	"/>
	<g>
		<path d="M93.397,324.63c-0.573,0-1.146-0.146-1.662-0.44c-1.048-0.597-1.696-1.712-1.696-2.918V218.29
			c0-1.185,0.624-2.282,1.643-2.887l36.538-21.692c1.036-0.615,2.326-0.628,3.376-0.031c1.049,0.597,1.696,1.711,1.696,2.919
			v102.983c0,1.185-0.624,2.282-1.643,2.888l-36.537,21.69C94.583,324.473,93.99,324.63,93.397,324.63z M96.755,220.201v95.171
			l29.821-17.703v-95.172L96.755,220.201z"/>
	</g>
	<path d="M236.155,298.691c-0.4-1.458-1.726-2.469-3.238-2.469H129.934c-0.603,0-1.195,0.162-1.714,0.47l-36.537,21.691
		c-1.3,0.773-1.924,2.318-1.524,3.777c0.4,1.458,1.726,2.469,3.238,2.469H196.38c0.603,0,1.195-0.162,1.714-0.47l36.537-21.691
		C235.932,301.695,236.555,300.151,236.155,298.691z"/>
	<g>
		<polygon fill="#FFFFFF" points="223.216,326.737 232.918,299.582 196.379,321.271 186.679,348.428 		"/>
	</g>
	<g>
		<polygon points="152.613,231.195 146.834,231.195 146.834,212.46 141.512,212.46 141.512,207.471 157.936,207.471 157.936,212.46 
			152.613,212.46 		"/>
	</g>
	<g>
		<polygon points="178.345,207.471 178.345,231.195 172.567,231.195 172.567,221.585 166.788,221.585 166.788,231.195 
			161.009,231.195 161.009,207.471 166.788,207.471 166.788,216.596 172.567,216.596 172.567,207.471 		"/>
	</g>
	<g>
		<rect x="182.634" y="207.471" width="5.779" height="23.724"/>
	</g>
	<g>
		<path d="M192.247,214.68v-0.334c0-4.411,2.95-7.299,8.668-7.299c5.992,0,8.668,2.555,8.668,8.304v0.638h-5.777
			c0-2.677-0.761-3.954-2.891-3.954h-0.302c-1.673,0-2.495,0.943-2.495,2.16v0.121c0,1.46,0.486,2.19,3.68,2.617
			c5.172,0.699,7.939,2.341,7.939,6.994v0.336c0,4.652-3.011,7.359-8.821,7.359c-5.779,0-8.82-2.403-8.82-8.364v-0.274h5.779
			c0,2.617,0.913,3.65,2.888,3.65h0.305c1.977,0,2.796-1.064,2.796-2.221v-0.12c0-1.37-0.638-2.191-3.832-2.617
			C194.863,220.978,192.247,219.335,192.247,214.68"/>
	</g>
	<g>
		<polygon points="152.553,260.164 145.193,260.164 141.421,236.441 147.443,236.441 149.268,252.195 151.944,236.441 
			159.061,236.441 161.739,252.195 163.563,236.441 169.585,236.441 165.813,260.164 158.485,260.164 155.503,243.073 		"/>
	</g>
	<g>
		<path d="M178.804,250.38l2.922-0.02l-1.511-7.228L178.804,250.38z M184.12,236.413l5.825,23.681l-6.174,0.045l-1.008-4.799
			l-4.925,0.036l-0.909,4.812l-6.206,0.045l5.488-23.763L184.12,236.413z"/>
	</g>
	<g>
		<polygon points="203.581,260.164 197.8,260.164 197.8,252.865 191.08,236.441 197.406,236.441 200.692,245.747 203.976,236.441 
			210.303,236.441 203.581,252.865 		"/>
	</g>
	<g>
		<path d="M142.424,281.163v-16.18h5.779v16.028c0,1.885,0.516,3.132,3.04,3.132c2.524,0,3.042-1.247,3.042-3.132v-16.029h5.779
			v16.18c0,4.988-1.945,7.97-8.821,7.97C144.371,289.132,142.424,286.151,142.424,281.163"/>
	</g>
	<g>
		<path d="M172.476,275.993c1.124,0,2.465-0.426,2.465-2.677v-0.243c0-2.251-1.34-2.678-2.465-2.678h-2.646v5.597h2.646V275.993z
			 M169.83,289.132h-5.779v-23.722h8.181c4.015,0,8.546,0.913,8.546,7.481v0.609c0,6.569-4.531,7.482-8.546,7.482h-2.402
			C169.83,280.98,169.83,289.132,169.83,289.132z"/>
	</g>
	<g>
		<polygon fill="#FFFFFF" points="182.319,317.885 129.934,299.581 93.397,321.271 145.782,339.576 		"/>
	</g>
	<path d="M236.276,196.598c0-1.855-1.503-3.358-3.358-3.358H129.935c-1.855,0-3.358,1.503-3.358,3.358v101.069l-34.894,20.717
		c-1.122,0.667-1.757,1.923-1.627,3.222c0.13,1.3,1.001,2.406,2.234,2.836l52.385,18.305c0.36,0.126,0.734,0.188,1.107,0.188
		c0.596,0,1.19-0.158,1.714-0.47l36.536-21.691c1.123-0.667,1.757-1.923,1.628-3.222c-0.131-1.3-1.001-2.406-2.234-2.836
		l-33.702-11.778h70.958l-26.017,15.445c-0.673,0.4-1.185,1.022-1.448,1.759l-9.701,27.157c-0.476,1.332-0.066,2.821,1.027,3.721
		c0.616,0.507,1.374,0.767,2.135,0.767c0.591,0,1.183-0.155,1.714-0.47l36.537-21.692c0.673-0.4,1.185-1.022,1.448-1.759
		l9.702-27.156c0.04-0.111,0.064-0.224,0.092-0.337c0.012-0.048,0.029-0.093,0.038-0.142c0.04-0.202,0.058-0.404,0.061-0.607
		c0-0.015,0.004-0.029,0.004-0.044V196.598H236.276z M133.293,199.956h96.267v96.267h-96.267V199.956z M145.414,335.891
		l-44.104-15.412l28.993-17.213l44.103,15.413L145.414,335.891z M220.461,324.467l-27.486,16.318l6.16-17.244l27.486-16.317
		L220.461,324.467z"/>
</g>
</svg>
