<?xml version="1.0" encoding="utf-8"?>
<!-- Generator: Adobe Illustrator 17.0.0, SVG Export Plug-In . SVG Version: 6.00 Build 0)  -->
<!DOCTYPE svg PUBLIC "-//W3C//DTD SVG 1.1//EN" "http://www.w3.org/Graphics/SVG/1.1/DTD/svg11.dtd">
<svg version="1.1" id="Layer_1" xmlns="http://www.w3.org/2000/svg" xmlns:xlink="http://www.w3.org/1999/xlink" x="0px" y="0px"
	 width="300px" height="300px" viewBox="18.89 125.187 300 300" enable-background="new 18.89 125.187 300 300"
	 xml:space="preserve">
<g id="logo">
	<g>
		<rect x="59.786" y="128.545" fill="#FFFFFF" width="102.983" height="102.984"/>
	</g>
	<polygon fill="#FFFFFF" points="23.248,150.237 23.248,253.219 59.785,231.529 59.785,128.545 	"/>
	<g>
		<path d="M23.248,256.577c-0.573,0-1.146-0.146-1.662-0.44c-1.048-0.597-1.696-1.712-1.696-2.918V150.237
			c0-1.185,0.624-2.282,1.643-2.887l36.538-21.692c1.036-0.615,2.326-0.628,3.376-0.031c1.049,0.597,1.696,1.711,1.696,2.919
			v102.983c0,1.185-0.624,2.282-1.643,2.888l-36.537,21.69C24.434,256.42,23.841,256.577,23.248,256.577z M26.606,152.148v95.171
			l29.821-17.703v-95.172L26.606,152.148z"/>
	</g>
	<path d="M166.006,230.639c-0.4-1.458-1.726-2.469-3.238-2.469H59.785c-0.603,0-1.195,0.162-1.714,0.47l-36.537,21.691
		c-1.3,0.773-1.924,2.318-1.524,3.777c0.4,1.458,1.726,2.469,3.238,2.469h102.983c0.603,0,1.195-0.162,1.714-0.47l36.537-21.691
		C165.783,233.643,166.406,232.098,166.006,230.639z"/>
	<g>
		<polygon fill="#FFFFFF" points="153.067,258.684 162.769,231.529 126.23,253.219 116.53,280.376 		"/>
	</g>
	<g>
		<polygon points="82.464,163.143 76.685,163.143 76.685,144.407 71.363,144.407 71.363,139.419 87.787,139.419 87.787,144.407 
			82.464,144.407 		"/>
	</g>
	<g>
		<polygon points="108.196,139.419 108.196,163.143 102.418,163.143 102.418,153.532 96.639,153.532 96.639,163.143 90.86,163.143 
			90.86,139.419 96.639,139.419 96.639,148.544 102.418,148.544 102.418,139.419 		"/>
	</g>
	<g>
		<rect x="112.485" y="139.419" width="5.779" height="23.724"/>
	</g>
	<g>
		<path d="M122.098,146.628v-0.334c0-4.411,2.95-7.299,8.668-7.299c5.992,0,8.668,2.555,8.668,8.304v0.638h-5.777
			c0-2.677-0.761-3.954-2.891-3.954h-0.302c-1.673,0-2.495,0.943-2.495,2.16v0.121c0,1.46,0.486,2.19,3.68,2.617
			c5.172,0.699,7.939,2.341,7.939,6.994v0.336c0,4.652-3.011,7.359-8.821,7.359c-5.779,0-8.82-2.403-8.82-8.364v-0.274h5.779
			c0,2.617,0.913,3.65,2.888,3.65h0.305c1.977,0,2.796-1.064,2.796-2.221v-0.12c0-1.37-0.638-2.191-3.832-2.617
			C124.714,152.925,122.098,151.282,122.098,146.628"/>
	</g>
	<g>
		<polygon points="82.404,192.112 75.044,192.112 71.272,168.389 77.294,168.389 79.119,184.143 81.795,168.389 88.912,168.389 
			91.59,184.143 93.414,168.389 99.436,168.389 95.664,192.112 88.336,192.112 85.354,175.02 		"/>
	</g>
	<g>
		<path d="M108.655,182.327l2.922-0.02l-1.511-7.228L108.655,182.327z M113.971,168.36l5.825,23.681l-6.174,0.045l-1.008-4.799
			l-4.925,0.036l-0.909,4.812l-6.206,0.045l5.488-23.763L113.971,168.36z"/>
	</g>
	<g>
		<polygon points="133.432,192.111 127.651,192.111 127.651,184.812 120.931,168.388 127.257,168.388 130.543,177.695 
			133.827,168.388 140.154,168.388 133.432,184.812 		"/>
	</g>
	<g>
		<path d="M72.275,213.11v-16.18h5.779v16.028c0,1.885,0.516,3.132,3.04,3.132s3.042-1.247,3.042-3.132v-16.029h5.779v16.18
			c0,4.988-1.945,7.97-8.821,7.97C74.222,221.079,72.275,218.098,72.275,213.11"/>
	</g>
	<g>
		<path d="M102.327,207.941c1.124,0,2.465-0.426,2.465-2.677v-0.243c0-2.251-1.34-2.678-2.465-2.678h-2.646v5.597L102.327,207.941
			L102.327,207.941z M99.681,221.079h-5.779v-23.722h8.181c4.015,0,8.546,0.913,8.546,7.481v0.609c0,6.569-4.531,7.482-8.546,7.482
			h-2.402C99.681,212.928,99.681,221.079,99.681,221.079z"/>
	</g>
	<g>
		<polygon fill="#FFFFFF" points="112.17,249.833 59.785,231.528 23.248,253.219 75.633,271.523 		"/>
	</g>
	<path d="M166.127,128.545c0-1.855-1.503-3.358-3.358-3.358H59.786c-1.855,0-3.358,1.503-3.358,3.358v101.069l-34.894,20.717
		c-1.122,0.667-1.757,1.923-1.627,3.222c0.13,1.3,1.001,2.406,2.234,2.836l52.385,18.305c0.36,0.126,0.734,0.188,1.107,0.188
		c0.596,0,1.19-0.158,1.714-0.47l36.536-21.691c1.123-0.667,1.757-1.923,1.628-3.222c-0.131-1.3-1.001-2.406-2.234-2.836
		l-33.702-11.778h70.958l-26.017,15.445c-0.673,0.4-1.185,1.022-1.448,1.759l-9.701,27.157c-0.476,1.332-0.066,2.821,1.027,3.721
		c0.616,0.507,1.374,0.767,2.135,0.767c0.591,0,1.183-0.155,1.714-0.47l36.537-21.692c0.673-0.4,1.185-1.022,1.448-1.759
		l9.702-27.156c0.04-0.111,0.064-0.224,0.092-0.337c0.012-0.048,0.029-0.093,0.038-0.142c0.04-0.202,0.058-0.404,0.061-0.607
		c0-0.015,0.004-0.029,0.004-0.044V128.545H166.127z M63.144,131.903h96.267v96.267H63.144V131.903z M75.265,267.838l-44.104-15.412
		l28.993-17.213l44.103,15.413L75.265,267.838z M150.312,256.415l-27.486,16.318l6.16-17.244l27.486-16.317L150.312,256.415z"/>
</g>
</svg>
